# xmcd
#
# Track frame offsets:
#	150
#	18836
#	35041
#	53090
#	66984
#	84403
#	97647
#	109554
#	126612
#	143055
#	157817
#	172977
#
# Disc length: 2566 seconds
#
# Revision: 0
# Processed by: cddbd v1.5.2PL0 Copyright (c) Steve Scherf et al.
# Submitted via: audiograbber 1.83.01
#
DISCID=900a040c
DTITLE=Various Artist - Die aktuelle Schlagertruhe ( CD 3 )
DYEAR=2010
DGENRE=Schlager
TTITLE0=Reinhard Fendrich ( LC 18344 ) - Es lebe der Sport
TTITLE1=Tony Marshall ( LC 18344 ) - Eine Insel aus Traeumen geboren ( Bora , B
TTITLE1=ora )
TTITLE2=Olaf Berger ( LC 18344 ) - Ich liebe Dich noch immer ( 2009)
TTITLE3=Ireen Sheer ( LC 18344 ) - Ach lass mich noch einmal ( in Deine Augen s
TTITLE3=eh ' n )
TTITLE4=Brunner and Brunner  ( Lc 18344 ) - Schenk mir diese eine Nacht
TTITLE5=Truck Stop ( LC 18344 ) - Der wilde , wilde Westen
TTITLE6=Tina York ( LC 18344 ) - Wir lassen uns das Singen nicht verbieten
TTITLE7=Olaf Berger ( LC 18344 ) - Es muss ja nicht gleich Liebe sein (2009)
TTITLE8=Michael Morgan ( LC 18344) - Die Frau in meinen Traeumen ( Radio Versio
TTITLE8=n )
TTITLE9=Ireen Sheer ( LC 18344) - Heut Abend hab ' ich Kopfweh (2010) ( Disco F
TTITLE9=ox Mix )
TTITLE10=Michael Reim  ( LC 18344)  - Ich hab getraeumt von Dir
TTITLE11=Roland Kaiser ( LC 18344 ) - Wir sind Sehnsucht ( Radio Version )
EXTD=
EXTT0=
EXTT1=
EXTT2=
EXTT3=
EXTT4=
EXTT5=
EXTT6=
EXTT7=
EXTT8=
EXTT9=
EXTT10=
EXTT11=
PLAYORDER=
